<svg height="512pt" viewBox="0 0 512 512" width="512pt" xmlns="http://www.w3.org/2000/svg"><path d="m512 272.519531v-36.128906c0-4.585937-2.769531-8.714844-7.015625-10.457031l-53.84375-22.078125c-3.109375-1.277344-5.484375-3.871094-6.488281-7.074219-3.871094-12.347656-8.925782-24.167969-15.027344-35.339844-1.644531-3.015625-1.84375-6.613281-.515625-9.785156l22.023437-52.640625c1.769532-4.230469.808594-9.113281-2.433593-12.355469l-25.546875-25.546875c-3.242188-3.242187-8.121094-4.203125-12.351563-2.433593l-53.71875 22.476562c-3.101562 1.296875-6.617187 1.140625-9.597656-.417969-11.269531-5.894531-23.175781-10.734375-35.589844-14.390625-3.292969-.96875-5.972656-3.371094-7.273437-6.546875l-21.644532-52.785156c-1.742187-4.246094-5.871093-7.015625-10.457031-7.015625h-36.128906c-4.585937 0-8.714844 2.769531-10.457031 7.015625l-22.078125 53.84375c-1.277344 3.109375-3.871094 5.484375-7.074219 6.488281-12.347656 3.871094-24.171875 8.925782-35.339844 15.027344-3.015625 1.644531-6.613281 1.84375-9.785156.515625l-52.640625-22.023437c-4.230469-1.769532-9.113281-.808594-12.355469 2.433593l-25.546875 25.546875c-3.242187 3.242188-4.203125 8.121094-2.433593 12.351563l22.476562 53.71875c1.296875 3.101562 1.140625 6.617187-.417969 9.597656-5.894531 11.269531-10.734375 23.175781-14.390625 35.589844-.96875 3.292969-3.371094 5.972656-6.546875 7.273437l-52.785156 21.644532c-4.246094 1.742187-7.015625 5.871093-7.015625 10.457031v36.128906c0 4.585937 2.769531 8.714844 7.015625 10.457031l53.84375 22.078125c3.109375 1.277344 5.484375 3.871094 6.488281 7.074219 3.871094 12.347656 8.925782 24.171875 15.027344 35.339844 1.644531 3.015625 1.84375 6.613281.515625 9.785156l-22.023437 52.640625c-1.769532 4.230469-.808594 9.113281 2.433593 12.355469l25.546875 25.546875c3.242188 3.242187 8.121094 4.203125 12.351563 2.433593l53.71875-22.476562c3.101562-1.296875 6.617187-1.140625 9.597656.417969 11.269531 5.894531 23.175781 10.734375 35.589844 14.390625 3.292969.96875 5.972656 3.371094 7.273437 6.546875l21.644532 52.785156c1.742187 4.242187 5.871093 7.015625 10.457031 7.015625h36.128906c4.585937 0 8.71875-2.773438 10.457031-7.015625l22.082032-53.84375c1.273437-3.109375 3.867187-5.484375 7.070312-6.488281 12.347656-3.875 24.171875-8.929688 35.34375-15.027344 3.015625-1.648438 6.609375-1.84375 9.78125-.515625l52.644531 22.023437c4.230469 1.769532 9.109375.808594 12.351563-2.433593l25.546875-25.546875c3.242187-3.242188 4.203125-8.121094 2.433593-12.351563l-22.476562-53.71875c-1.296875-3.101562-1.140625-6.617187.421875-9.597656 5.894531-11.269531 10.734375-23.175781 14.386719-35.589844.96875-3.292969 3.371094-5.972656 6.546875-7.273437l52.785156-21.644532c4.246094-1.742187 7.015625-5.871093 7.015625-10.457031zm0 0" fill="#17ace8"/><path d="m226.058594 7.015625 21.644531 52.785156c1.300781 3.175781 3.980469 5.578125 7.273437 6.546875 12.414063 3.652344 24.320313 8.492188 35.589844 14.386719 2.980469 1.5625 6.496094 1.71875 9.597656.421875l24.894532-10.414062c-4.320313-1.613282-8.707032-3.082032-13.164063-4.394532-3.292969-.96875-5.972656-3.371094-7.273437-6.546875l-21.644532-52.785156c-1.742187-4.246094-5.871093-7.015625-10.457031-7.015625h-36.128906c-4.535156 0-8.621094 2.714844-10.394531 6.878906.019531.046875.042968.089844.0625.136719zm0 0" fill="#1391c4"/><path d="m504.984375 225.933594-53.84375-22.078125c-3.109375-1.277344-5.484375-3.871094-6.488281-7.074219-3.871094-12.347656-8.925782-24.167969-15.027344-35.339844-1.644531-3.015625-1.84375-6.613281-.515625-9.785156l22.023437-52.640625c1.769532-4.230469.808594-9.113281-2.433593-12.355469l-25.546875-25.546875c-3.242188-3.242187-8.121094-4.203125-12.351563-2.433593l-33.136719 13.863281 14.117188 14.117187c3.242188 3.242188 4.207031 8.125 2.4375 12.355469l-22.027344 52.640625c-1.324218 3.171875-1.128906 6.769531.519532 9.785156 6.097656 11.171875 11.152343 22.992188 15.023437 35.339844 1.007813 3.203125 3.378906 5.796875 6.488281 7.074219l53.847656 22.078125c4.242188 1.742187 7.011719 5.871094 7.011719 10.457031v36.128906c0 4.585938-2.769531 8.714844-7.011719 10.453125l-52.789062 21.644532c-3.175781 1.304687-5.578125 3.980468-6.546875 7.273437-3.652344 12.417969-8.492187 24.324219-14.386719 35.59375-1.558594 2.980469-1.71875 6.496094-.417968 9.597656l22.472656 53.71875c1.769531 4.226563.808594 9.109375-2.433594 12.351563l-14.117188 14.117187 33.136719 13.863281c4.230469 1.769532 9.109375.808594 12.351563-2.433593l25.546875-25.546875c3.242187-3.242188 4.203125-8.125 2.433593-12.351563l-22.476562-53.71875c-1.296875-3.101562-1.140625-6.617187.421875-9.597656 5.894531-11.269531 10.734375-23.175781 14.386719-35.59375.96875-3.289063 3.371094-5.96875 6.546875-7.273437l52.785156-21.644532c4.246094-1.738281 7.015625-5.871094 7.015625-10.453125v-36.128906c0-4.585937-2.769531-8.714844-7.015625-10.457031zm0 0" fill="#1391c4"/><path d="m303.425781 429.109375c-3.171875-1.328125-6.769531-1.128906-9.785156.515625-11.171875 6.101562-22.992187 11.15625-35.339844 15.027344-3.203125 1.007812-5.796875 3.378906-7.074219 6.488281l-22.078124 53.84375c-.019532.046875-.042969.089844-.0625.136719 1.773437 4.164062 5.859374 6.878906 10.394531 6.878906h36.128906c4.585937 0 8.714844-2.769531 10.457031-7.015625l22.078125-53.84375c1.273438-3.109375 3.867188-5.484375 7.074219-6.488281 4.648438-1.457032 9.222656-3.085938 13.714844-4.871094zm0 0" fill="#1391c4"/><path d="m397.703125 256c0 78.261719-63.441406 141.703125-141.703125 141.703125s-141.703125-63.441406-141.703125-141.703125 63.441406-141.703125 141.703125-141.703125 141.703125 63.441406 141.703125 141.703125zm0 0" fill="#e1e3fa"/><path d="m256 114.296875c-7.65625 0-15.1875.609375-22.515625 1.777344 67.570313 10.78125 119.230469 69.320312 119.230469 139.925781s-51.675782 129.144531-119.246094 139.921875c7.328125 1.171875 14.875 1.78125 22.53125 1.78125 78.261719 0 141.703125-63.441406 141.703125-141.703125s-63.441406-141.703125-141.703125-141.703125zm0 0" fill="#b1b2c4"/><g fill="#666"><path d="m263.726562 168.246094v-17.917969c0-4.269531-3.460937-7.726563-7.726562-7.726563s-7.726562 3.457032-7.726562 7.726563v17.917969c0 4.269531 3.460937 7.726562 7.726562 7.726562s7.726562-3.457031 7.726562-7.726562zm0 0"/><path d="m361.671875 263.726562c4.269531 0 7.726563-3.460937 7.726563-7.726562s-3.460938-7.726562-7.726563-7.726562h-17.917969c-4.269531 0-7.726562 3.460937-7.726562 7.726562s3.457031 7.726562 7.726562 7.726562zm0 0"/><path d="m248.273438 343.753906v17.917969c0 4.269531 3.460937 7.726563 7.726562 7.726563s7.726562-3.457032 7.726562-7.726563v-17.917969c0-4.269531-3.460937-7.726562-7.726562-7.726562s-7.726562 3.457031-7.726562 7.726562zm0 0"/><path d="m150.328125 248.273438c-4.269531 0-7.726563 3.460937-7.726563 7.726562s3.460938 7.726562 7.726563 7.726562h17.917969c4.269531 0 7.726562-3.460937 7.726562-7.726562s-3.457031-7.726562-7.726562-7.726562zm0 0"/></g><path d="m240.117188 256c0 8.769531 7.113281 15.882812 15.882812 15.882812 10.570312 0 18.152344-10.121093 15.277344-20.234374l56.800781-56.800782c3.019531-3.015625 3.019531-7.90625 0-10.925781-3.015625-3.015625-7.90625-3.015625-10.925781 0l-56.800782 56.800781c-1.382812-.394531-2.84375-.605468-4.351562-.605468-8.769531 0-15.882812 7.113281-15.882812 15.882812zm0 0" fill="#4d4d4d"/></svg>
