<svg height="512pt" viewBox="-19 0 511 512" width="512pt" xmlns="http://www.w3.org/2000/svg"><path d="m237.28125 46.21875c-4.269531 0-7.726562-3.457031-7.726562-7.726562v-30.765626c0-4.265624 3.457031-7.726562 7.726562-7.726562 4.265625 0 7.722656 3.460938 7.722656 7.726562v30.765626c0 4.269531-3.457031 7.726562-7.722656 7.726562zm0 0" fill="#475a72"/><path d="m414.875 318.191406c2.703125 0 5.453125-.613281 8.035156-1.902344 8.910156-4.445312 12.527344-15.273437 8.078125-24.183593-23.136719-46.34375-67.859375-47.003907-70.265625-47.003907-.011718 0-.023437 0-.035156 0l.117188 36.058594-.226563-.003906c1.015625.027344 25.089844.890625 38.152344 27.054688 3.15625 6.320312 9.527343 9.980468 16.144531 9.980468zm0 0" fill="#475a72"/><path d="m404.707031 358.804688c1.5 0 3.027344-.265626 4.515625-.820313 6.660156-2.496094 10.035156-9.917969 7.539063-16.578125-3.34375-8.921875 1.195312-18.898438 10.117187-22.238281 8.914063-3.34375 18.898438 1.195312 22.242188 10.117187 2.496094 6.660156 9.910156 10.035156 16.574218 7.542969 6.660157-2.496094 10.039063-9.917969 7.542969-16.578125-8.324219-22.21875-33.175781-33.523438-55.394531-25.199219s-33.523438 33.175781-25.199219 55.394531c1.9375 5.167969 6.847657 8.359376 12.0625 8.359376zm0 0" fill="#ff6e88"/><path d="m59.683594 318.191406c-2.703125 0-5.449219-.613281-8.035156-1.902344-8.910157-4.445312-12.527344-15.273437-8.078126-24.183593 23.136719-46.34375 67.859376-47.003907 70.265626-47.003907h.035156l-.117188 36.058594.230469-.003906c-1.019531.027344-25.09375.890625-38.15625 27.054688-3.15625 6.320312-9.527344 9.980468-16.144531 9.980468zm0 0" fill="#475a72"/><path d="m69.851562 358.804688c-1.5 0-3.023437-.265626-4.515624-.820313-6.660157-2.496094-10.035157-9.917969-7.539063-16.578125 3.34375-8.921875-1.195313-18.898438-10.117187-22.238281-8.914063-3.34375-18.898438 1.195312-22.242188 10.117187-2.492188 6.660156-9.910156 10.035156-16.574219 7.542969-6.660156-2.496094-10.035156-9.917969-7.539062-16.578125 8.324219-22.21875 33.171875-33.523438 55.390625-25.199219s33.523437 33.175781 25.199218 55.394531c-1.9375 5.167969-6.84375 8.359376-12.0625 8.359376zm0 0" fill="#ff6e88"/><path d="m343.804688 224.027344h-213.050782v-86.734375c0-58.832031 47.695313-106.527344 106.527344-106.527344s106.523438 47.695313 106.523438 106.527344zm0 0" fill="#4d9ae8"/><path d="m301.226562 52.09375c13.390626 17.808594 21.328126 39.953125 21.328126 63.949219v57.316406c0 16.246094-13.171876 29.417969-29.417969 29.417969h-162.382813v21.25h213.050782v-86.734375c0-34.835938-16.722657-65.761719-42.578126-85.199219zm0 0" fill="#4181c2"/><path d="m217.097656 108.167969c0 10.84375-8.789062 19.636719-19.636718 19.636719-10.84375 0-19.636719-8.792969-19.636719-19.636719s8.792969-19.636719 19.636719-19.636719c10.847656 0 19.636718 8.792969 19.636718 19.636719zm0 0" fill="#90d9fe"/><path d="m296.734375 108.167969c0 10.84375-8.792969 19.636719-19.636719 19.636719-10.847656 0-19.636718-8.792969-19.636718-19.636719s8.789062-19.636719 19.636718-19.636719c10.84375 0 19.636719 8.792969 19.636719 19.636719zm0 0" fill="#90d9fe"/><path d="m278.738281 191.953125h-82.917969c-5.121093 0-9.269531-4.148437-9.269531-9.269531v-12.222656c0-5.121094 4.148438-9.273438 9.269531-9.273438h82.917969c5.121094 0 9.269531 4.152344 9.269531 9.273438v12.222656c0 5.121094-4.148437 9.269531-9.269531 9.269531zm0 0" fill="#ff6e88"/><path d="m343.53125 416.929688h-212.503906c-11 0-19.917969-8.917969-19.917969-19.917969v-153.066407c0-11 8.917969-19.917968 19.917969-19.917968h212.503906c11 0 19.917969 8.917968 19.917969 19.917968v153.070313c0 10.996094-8.917969 19.914063-19.917969 19.914063zm0 0" fill="#4d9ae8"/><path d="m343.53125 224.027344h-4.300781v147.652344c0 11.449218-9.28125 20.726562-20.726563 20.726562h-207.394531v4.609375c0 11 8.917969 19.914063 19.917969 19.914063h212.503906c11 0 19.917969-8.914063 19.917969-19.914063v-153.070313c0-11-8.917969-19.917968-19.917969-19.917968zm0 0" fill="#4181c2"/><path d="m293.941406 366.667969h-113.320312c-6.003906 0-10.871094-4.863281-10.871094-10.867188v-70.640625c0-6.003906 4.867188-10.871094 10.871094-10.871094h113.320312c6 0 10.867188 4.867188 10.867188 10.871094v70.640625c0 6-4.867188 10.867188-10.867188 10.867188zm0 0" fill="#90d9fe"/><path d="m294.289062 274.289062h-8.714843v62.625c0 5.8125-4.710938 10.519532-10.519531 10.519532h-105.304688v8.71875c0 5.808594 4.710938 10.515625 10.519531 10.515625h114.019531c5.808594 0 10.519532-4.707031 10.519532-10.515625v-71.34375c0-5.808594-4.710938-10.519532-10.519532-10.519532zm0 0" fill="#7fc0e0"/><path d="m149.714844 416.929688h57.363281v77.882812h-57.363281zm0 0" fill="#475a72"/><path d="m149.714844 416.929688h57.363281v17.453124h-57.363281zm0 0" fill="#364457"/><path d="m178.398438 462.550781c-23.515626 0-43.195313 16.410157-48.210938 38.402344-1.292969 5.660156 3.058594 11.046875 8.867188 11.046875h78.683593c5.808594 0 10.160157-5.386719 8.867188-11.046875-5.015625-21.992187-24.695313-38.402344-48.207031-38.402344zm0 0" fill="#ff6e88"/><path d="m226.605469 500.953125c-5.015625-21.992187-24.695313-38.402344-48.207031-38.402344-4.519532 0-8.894532.609375-13.050782 1.746094 17.480469 4.769531 31.105469 18.890625 35.160156 36.65625 1.292969 5.660156-3.058593 11.046875-8.867187 11.046875h26.097656c5.808594 0 10.160157-5.386719 8.867188-11.046875zm0 0" fill="#e36278"/><path d="m267.480469 416.929688h57.363281v77.882812h-57.363281zm0 0" fill="#475a72"/><path d="m267.480469 416.929688h57.363281v17.453124h-57.363281zm0 0" fill="#364457"/><path d="m296.164062 462.550781c-23.511718 0-43.195312 16.410157-48.210937 38.402344-1.292969 5.660156 3.058594 11.046875 8.867187 11.046875h78.683594c5.808594 0 10.160156-5.386719 8.867188-11.046875-5.015625-21.992187-24.695313-38.402344-48.207032-38.402344zm0 0" fill="#ff6e88"/><path d="m344.371094 500.953125c-5.015625-21.992187-24.695313-38.402344-48.207032-38.402344-4.988281 0-9.800781.746094-14.34375 2.121094 16.859376 5.101563 29.917969 18.953125 33.871094 36.28125 1.292969 5.660156-3.0625 11.046875-8.867187 11.046875h28.679687c5.808594 0 10.160156-5.386719 8.867188-11.046875zm0 0" fill="#e36278"/><g fill="#475a72"><path d="m217.640625 312.824219h39.273437c4.269532 0 7.726563-3.460938 7.726563-7.726563 0-4.269531-3.457031-7.726562-7.726563-7.726562h-39.273437c-4.265625 0-7.726563 3.457031-7.726563 7.726562 0 4.265625 3.460938 7.726563 7.726563 7.726563zm0 0"/><path d="m275.570312 328.136719h-76.585937c-4.265625 0-7.726563 3.457031-7.726563 7.722656 0 4.269531 3.460938 7.726563 7.726563 7.726563h76.585937c4.269532 0 7.726563-3.457032 7.726563-7.726563 0-4.265625-3.457031-7.722656-7.726563-7.722656zm0 0"/></g></svg>
