<?xml version="1.0" encoding="UTF-8"?>
<svg version="1.0" viewBox="0 0 707.42 398.84" xmlns="http://www.w3.org/2000/svg" xmlns:xlink="http://www.w3.org/1999/xlink">
 <defs>
  <linearGradient id="q" x1="359.08" x2="359.08" y1="465.67" y2="472.52" gradientTransform="matrix(.99992 0 0 .86395 1.2423 49.596)" gradientUnits="userSpaceOnUse">
   <stop stop-opacity=".70085" offset="0"/>
   <stop stop-color="#4b5151" stop-opacity="0" offset="1"/>
  </linearGradient>
  <linearGradient id="p">
   <stop stop-color="#b3b3b3" offset="0"/>
   <stop stop-color="#e9e9e9" offset=".02"/>
   <stop stop-color="#d4d4d7" offset=".04"/>
   <stop stop-color="#e4e4e6" offset=".96"/>
   <stop stop-color="#f4f4f4" offset=".98"/>
   <stop stop-color="#b3b3b3" offset="1"/>
  </linearGradient>
  <linearGradient id="o">
   <stop stop-color="#fff" offset="0"/>
   <stop stop-color="#fff" stop-opacity=".8547" offset="1"/>
  </linearGradient>
  <radialGradient id="ab" cx="368.78" cy="101.43" r="3.4688" gradientTransform="matrix(1 0 0 .95 0 5.0362)" gradientUnits="userSpaceOnUse" xlink:href="#o"/>
  <linearGradient id="r" x1="19.123" x2="724.58" y1="438.17" y2="438.17" gradientTransform="matrix(1.0024 0 0 .73748 -1.0933 132.96)" gradientUnits="userSpaceOnUse" xlink:href="#p"/>
  <linearGradient id="s" x1="423.08" x2="468.94" y1="35.017" y2="414.62" gradientTransform="matrix(1.0295 0 0 1.0095 -11.008 -3.5235)" gradientUnits="userSpaceOnUse">
   <stop stop-color="#91404b" offset="0"/>
   <stop stop-color="#a3466f" offset=".40632"/>
   <stop stop-color="#915378" offset=".69016"/>
   <stop stop-color="#7d4984" offset="1"/>
  </linearGradient>
  <linearGradient id="t" x1="359.08" x2="359.08" y1="465.67" y2="472.52" gradientTransform="matrix(.99992 0 0 .86395 1.2423 49.596)" gradientUnits="userSpaceOnUse">
   <stop stop-color="#c6c6c6" offset="0"/>
   <stop stop-color="#f2f2f2" offset="1"/>
  </linearGradient>
  <linearGradient id="u" x1="334.45" x2="334.45" y1="470.3" y2="485.04" gradientTransform="matrix(1.0083 0 0 .76407 -3.098 104.51)" gradientUnits="userSpaceOnUse">
   <stop stop-color="#d1d4d6" offset="0"/>
   <stop stop-color="#a1a5a6" offset=".5"/>
   <stop offset="1"/>
  </linearGradient>
  <linearGradient id="v" x1="310.54" x2="317.67" y1="467.8" y2="467.14" gradientTransform="matrix(-1.0006 0 0 .84879 736.21 56.813)" gradientUnits="userSpaceOnUse" xlink:href="#q"/>
  <linearGradient id="w" x1="310.54" x2="317.67" y1="467.8" y2="467.14" gradientTransform="matrix(.99992 0 0 .86395 1.3144 49.583)" gradientUnits="userSpaceOnUse" xlink:href="#q"/>
  <linearGradient id="x" x1="18.2" x2="725.5" y1="455.96" y2="455.96" gradientTransform="matrix(.99957 0 0 1 -.049558 .13646)" gradientUnits="userSpaceOnUse" xlink:href="#p"/>
  <linearGradient id="y" x1="18.142" x2="725.14" y1="464.07" y2="464.07" gradientTransform="matrix(1 0 0 2.3955 0 -648.19)" gradientUnits="userSpaceOnUse">
   <stop stop-color="#cfcfcf" stop-opacity="0" offset="0"/>
   <stop stop-color="#fff" stop-opacity=".84615" offset=".5"/>
   <stop stop-color="#cfcfcf" stop-opacity="0" offset="1"/>
  </linearGradient>
  <linearGradient id="z" x1="350.38" x2="350.38" y1="439.86" y2="450.9" gradientTransform="matrix(1.4772 0 0 .89908 -185.86 44.389)" gradientUnits="userSpaceOnUse">
   <stop offset="0"/>
   <stop stop-color="#4e4e4e" offset=".5"/>
   <stop stop-color="#212121" offset="1"/>
  </linearGradient>
  <linearGradient id="aa" x1="525.28" x2="656.6" y1="97.768" y2="423.04" gradientTransform="matrix(1.3271 0 0 1.0058 -214.41 2.1515)" gradientUnits="userSpaceOnUse" xlink:href="#o"/>
 </defs>
 <g transform="translate(-18.142 -83.649)">
  <rect x="101.03" y="84.649" width="542.43" height="377.99" rx="19.999" ry="20.788" fill="#d0d0d2" stroke="#b3b7b7" stroke-linecap="round" stroke-linejoin="bevel" stroke-width="2"/>
  <rect x="103.91" y="88.266" width="535.76" height="368.17" rx="17" ry="17" stroke="#000" stroke-linecap="round" stroke-linejoin="bevel" stroke-width="1.0088"/>
  <rect x="123.14" y="111.49" width="495" height="310" fill="url(#s)" opacity=".87065"/>
  <path d="m500.12 88.935-261.42 364.08 399.49 1.02s1.2887-330.92 0.74953-345.69c-0.56-15.474-9.16-19.029-26.92-19.199-18.68-0.179-111.9-0.221-111.9-0.221z" fill="url(#aa)" fill-rule="evenodd" opacity=".054167"/>
  <path transform="matrix(1.2563 0 0 1.2563 -94.56 -25.955)" d="m372.25 100.72a3.4688 3.2954 0 1 1 -6.94 0 3.4688 3.2954 0 1 1 6.94 0z" fill="url(#ab)" opacity=".16418"/>
  <rect x="18.544" y="448.12" width="706.2" height="15.965" fill="url(#r)" stroke="url(#x)" stroke-linecap="round" stroke-linejoin="bevel" stroke-width=".80483"/>
  <path d="m315.17 447.66v1.5366c0 4.788 4.46 8.6421 10 8.6421h86.93c5.54 0 10-3.8541 10-8.6421v-1.5366h-106.93z" fill="url(#t)" opacity=".87065"/>
  <rect x="18.142" y="462.49" width="707" height="2" fill="url(#y)"/>
  <path d="m422.08 447.89v1.5096c0 4.7039-4.4629 8.4904-10.007 8.4904h-86.987c-5.5436 0-10.007-3.7865-10.007-8.4904v-1.5096h107z" fill="url(#v)" opacity=".87065"/>
  <path d="m315.24 447.65v1.5366c0 4.788 4.46 8.6421 10 8.6421h86.93c5.54 0 10-3.8541 10-8.6421v-1.5366h-106.93z" fill="url(#w)" opacity=".87065"/>
  <path d="m18.542 464.47c6.2184 4.8804 30.22 6.9503 39.6 7 216.02 0.0348 620 0 620 0 7.65 9.4e-4 43.32-3.2917 46.6-7z" fill="url(#u)"/>
  <rect x="104.97" y="88.803" width="533.56" height="349.35" rx="16.93" ry="16.131" fill="none" opacity=".27917" stroke="#fff" stroke-linecap="round" stroke-linejoin="bevel"/>
  <rect x="147.89" y="439.86" width="443.17" height="7.1927" fill="url(#z)"/>
 </g>
</svg>
