<?xml version="1.0" encoding="UTF-8"?>
<svg viewBox="0 0 900 700" xmlns="http://www.w3.org/2000/svg" xmlns:xlink="http://www.w3.org/1999/xlink">
 <defs>
  <filter id="u">
   <feGaussianBlur stdDeviation="34.6347"/>
  </filter>
  <linearGradient id="b">
   <stop stop-color="#fff" offset="0"/>
   <stop stop-color="#fff" stop-opacity="0" offset="1"/>
  </linearGradient>
  <linearGradient id="c">
   <stop stop-opacity="0" offset="0"/>
   <stop offset="1"/>
  </linearGradient>
  <linearGradient id="d">
   <stop stop-color="#333" offset="0"/>
   <stop stop-color="#333" stop-opacity="0" offset="1"/>
  </linearGradient>
  <linearGradient id="e">
   <stop offset="0"/>
   <stop stop-opacity="0" offset="1"/>
  </linearGradient>
  <linearGradient id="t" x1="-367.7" x2="315.17" y1="2082.7" y2="1824.1" gradientUnits="userSpaceOnUse">
   <stop stop-color="#f2f2f2" offset="0"/>
   <stop stop-color="#f2f2f2" stop-opacity="0" offset="1"/>
  </linearGradient>
  <linearGradient id="a" x1="-1126.4" x2="-1157.1" y1="1670.2" y2="1692.4" gradientUnits="userSpaceOnUse" xlink:href="#e"/>
  <linearGradient id="s" x1="-498.67" x2="-530.1" y1="1776.2" y2="1740.5" gradientUnits="userSpaceOnUse" xlink:href="#e"/>
  <pattern id="r" width="33.20465" height="24.46503" patternTransform="translate(-1151.6 1706.1)" patternUnits="userSpaceOnUse">
   <g transform="matrix(.22973 0 0 -.22973 283.5 389.77)">
    <path d="m-1162.9 1670.2h35.714v26.429h-35.714z" fill="url(#a)"/>
    <path d="m-1162.9 1670.2c35.828 26.705 0 0.7745 35.714 26.428h-35.714z" fill="#e6e6e6"/>
   </g>
   <g transform="matrix(.22973 0 0 -.22973 291.89 395.66)">
    <path d="m-1162.9 1670.2h35.714v26.429h-35.714z" fill="url(#a)"/>
    <path d="m-1162.9 1670.2c35.828 26.705 0 0.7745 35.714 26.428h-35.714z" fill="#e6e6e6"/>
   </g>
   <g transform="matrix(.22973 0 0 -.22973 291.83 389.77)">
    <path d="m-1162.9 1670.2h35.714v26.429h-35.714z" fill="url(#a)"/>
    <path d="m-1162.9 1670.2c35.828 26.705 0 0.7745 35.714 26.428h-35.714z" fill="#e6e6e6"/>
   </g>
   <g transform="matrix(.22973 0 0 -.22973 275.28 390.19)">
    <path d="m-1162.9 1670.2h35.714v26.429h-35.714z" fill="url(#a)"/>
    <path d="m-1162.9 1670.2c35.828 26.705 0 0.7745 35.714 26.428h-35.714z" fill="#e6e6e6"/>
   </g>
   <g transform="matrix(.22973 0 0 -.22973 283.5 396.08)">
    <path d="m-1162.9 1670.2h35.714v26.429h-35.714z" fill="url(#a)"/>
    <path d="m-1162.9 1670.2c35.828 26.705 0 0.7745 35.714 26.428h-35.714z" fill="#e6e6e6"/>
   </g>
   <g transform="matrix(.22973 0 0 -.22973 291.89 401.98)">
    <path d="m-1162.9 1670.2h35.714v26.429h-35.714z" fill="url(#a)"/>
    <path d="m-1162.9 1670.2c35.828 26.705 0 0.7745 35.714 26.428h-35.714z" fill="#e6e6e6"/>
   </g>
   <g transform="matrix(.22973 0 0 -.22973 267.14 390.49)">
    <path d="m-1162.9 1670.2h35.714v26.429h-35.714z" fill="url(#a)"/>
    <path d="m-1162.9 1670.2c35.828 26.705 0 0.7745 35.714 26.428h-35.714z" fill="#e6e6e6"/>
   </g>
   <g transform="matrix(.22973 0 0 -.22973 275.54 396.38)">
    <path d="m-1162.9 1670.2h35.714v26.429h-35.714z" fill="url(#a)"/>
    <path d="m-1162.9 1670.2c35.828 26.705 0 0.7745 35.714 26.428h-35.714z" fill="#e6e6e6"/>
   </g>
   <g transform="matrix(.22973 0 0 -.22973 283.75 402.27)">
    <path d="m-1162.9 1670.2h35.714v26.429h-35.714z" fill="url(#a)"/>
    <path d="m-1162.9 1670.2c35.828 26.705 0 0.7745 35.714 26.428h-35.714z" fill="#e6e6e6"/>
   </g>
   <g transform="matrix(.22973 0 0 -.22973 292.14 408.16)">
    <path d="m-1162.9 1670.2h35.714v26.429h-35.714z" fill="url(#a)"/>
    <path d="m-1162.9 1670.2c35.828 26.705 0 0.7745 35.714 26.428h-35.714z" fill="#e6e6e6"/>
   </g>
   <g transform="matrix(.22973 0 0 -.22973 267.33 396.63)">
    <path d="m-1162.9 1670.2h35.714v26.429h-35.714z" fill="url(#a)"/>
    <path d="m-1162.9 1670.2c35.828 26.705 0 0.7745 35.714 26.428h-35.714z" fill="#e6e6e6"/>
   </g>
   <g transform="matrix(.22973 0 0 -.22973 275.54 402.52)">
    <path d="m-1162.9 1670.2h35.714v26.429h-35.714z" fill="url(#a)"/>
    <path d="m-1162.9 1670.2c35.828 26.705 0 0.7745 35.714 26.428h-35.714z" fill="#e6e6e6"/>
   </g>
   <g transform="matrix(.22973 0 0 -.22973 267.58 402.69)">
    <path d="m-1162.9 1670.2h35.714v26.429h-35.714z" fill="url(#a)"/>
    <path d="m-1162.9 1670.2c35.828 26.705 0 0.7745 35.714 26.428h-35.714z" fill="#e6e6e6"/>
   </g>
  </pattern>
  <pattern id="q" xlink:href="#r" patternTransform="translate(-1161.7 1689.9)"/>
  <radialGradient id="p" cx="-751.34" cy="2212.1" r="261.34" gradientTransform="matrix(1 0 0 .66412 0 703.99)" gradientUnits="userSpaceOnUse">
   <stop stop-color="#4d4d4d" offset="0"/>
   <stop stop-color="#cbc4c4" offset=".5"/>
   <stop stop-color="#4d4d4d" offset="1"/>
  </radialGradient>
  <radialGradient id="o" cx="-446.31" cy="2282.7" r="46.429" gradientTransform="matrix(.93818 -.63396 .85049 1.2586 -1957.7 -856.88)" gradientUnits="userSpaceOnUse">
   <stop stop-color="#4d4d4d" offset="0"/>
   <stop stop-color="#cbc4c4" offset=".8394"/>
   <stop stop-color="#4d4d4d" offset="1"/>
  </radialGradient>
  <radialGradient id="n" cx="-487.73" cy="1972.9" r="759.21" gradientTransform="matrix(.6494 -.76045 .48964 .41813 -1137 707.12)" gradientUnits="userSpaceOnUse">
   <stop stop-color="#2b0000" offset="0"/>
   <stop stop-color="#9b1313" offset=".4365"/>
   <stop stop-color="#cd7d7d" offset=".5936"/>
   <stop stop-color="#aa0a0a" offset=".7384"/>
   <stop stop-color="#2b0000" offset="1"/>
  </radialGradient>
  <radialGradient id="m" cx="-648.96" cy="2385.4" r="254.77" gradientTransform="matrix(2.5981 .44858 -.08392 .48602 1237.3 1430.6)" gradientUnits="userSpaceOnUse">
   <stop stop-color="#4d4d4d" offset="0"/>
   <stop stop-color="#4d4d4d" stop-opacity="0" offset="1"/>
  </radialGradient>
  <radialGradient id="h" cx="-249.67" cy="1545.8" r="78.609" gradientTransform="matrix(1.0922 -.19643 .18037 1.0029 -255.8 -53.565)" gradientUnits="userSpaceOnUse">
   <stop stop-color="#999" offset="0"/>
   <stop stop-color="#999" stop-opacity="0" offset="1"/>
  </radialGradient>
  <radialGradient id="l" cx="-98.564" cy="2189.4" r="529.9" gradientTransform="matrix(.84337 -.35874 .29738 .69911 -647.47 567.04)" gradientUnits="userSpaceOnUse" xlink:href="#d"/>
  <radialGradient id="k" cx="-464.52" cy="1903.5" r="558.14" gradientTransform="matrix(.99679 -.47507 .25632 .53782 -491.73 615.9)" gradientUnits="userSpaceOnUse" xlink:href="#b"/>
  <radialGradient id="j" cx="-472.87" cy="1866.4" r="409.06" gradientTransform="matrix(1.1907 -1.1486 .24423 .25319 -340.94 714.81)" gradientUnits="userSpaceOnUse" xlink:href="#c"/>
  <radialGradient id="i" cx="-550.29" cy="1760.6" r="124.64" gradientTransform="matrix(.86996 .2431 -.21246 .76033 302.34 552.89)" gradientUnits="userSpaceOnUse" xlink:href="#c"/>
  <radialGradient id="g" cx="-512.74" cy="1703.8" r="115.58" gradientTransform="matrix(.33835 -.34336 .6094 .60051 -1421.7 544.34)" gradientUnits="userSpaceOnUse" xlink:href="#b"/>
  <radialGradient id="f" cx="-311.23" cy="1602.8" r="19.484" gradientTransform="matrix(.99056 -.13707 .29328 2.1194 -473.01 -1836.8)" gradientUnits="userSpaceOnUse" xlink:href="#d"/>
 </defs>
 <g transform="matrix(.52028 0 0 .52028 542.93 -678.98)">
  <path transform="matrix(.96279 0 0 .94537 -10.442 127.49)" d="m-210 2333.8c177.14-59.334 354.29-106.32 531.43-131.43 131.65-25.902 224.02-81.272 264.29-175.71 35.835-73.495 26.319-107.29-84.286-278.57-241.99-286.87-501.4-329.91-770-244.29-115.65 38.526-222.86 91.104-327.14 148.57-69.382 44.595-133.94 91.602-195.71 140-46.423 35.494-90.231 78.83-132.86 125.71-50.829 43.785-24.33 131.59-2.8572 162.86l102.86 122.86c177.46 172.57 379.71 227.8 614.29 130z" filter="url(#u)"/>
  <path d="m-218.57 2305.2c177.14-59.334 354.29-106.32 531.43-131.43 131.65-25.902 224.02-81.272 264.29-175.71 35.835-73.495 26.319-107.29-84.286-278.57-241.99-286.87-501.4-329.91-770-244.29-115.65 38.526-222.86 91.104-327.14 148.57-69.382 44.595-133.94 91.602-195.71 140-46.423 35.494-90.231 78.83-132.86 125.71-50.829 43.785-24.33 131.59-2.8572 162.86l102.86 122.86c177.46 172.57 379.71 227.8 614.29 130z" fill="#1a1a1a"/>
  <path d="m-920 1922.4-32.688 93.875c0.38061 1.1481 0.76102 2.2849 1.1562 3.4062 0.025 0.071 0.0375 0.1481 0.0625 0.2188 4.653 10.83 9.5225 21.67 15.75 32.5l0.0937 0.094 102.78 122.75c14.119 13.729 28.376 26.712 42.812 38.937l238.59 55.344 78.594-24.281 42.844-62.844-112.84-94.312-377.16-165.69z" fill="url(#p)"/>
  <path d="m-905.16 2088.9 71.184 82.056c131.29 123.26 276.35 183.52 438.36 166.4-32.263-34.558-48.921-62.582-70.806-99.931-149.86 22.321-299.09-55.825-438.74-148.52z" fill="#b3b3b3"/>
  <path d="m-467.14 2238.1 15.714-27.143 77.143 107.14-25.714 20c-22.381-27.012-44.762-61.588-67.143-100z" fill="url(#o)"/>
  <path d="m-46.719 1436c-75.907 0.4679-152.8 14.467-230.44 39.219-115.65 38.525-222.84 91.095-327.12 148.56-69.382 44.595-133.94 91.602-195.72 140-46.423 35.494-90.218 78.835-132.84 125.72-38.224 32.927-32.714 90.738-18.5 130.69 90.71 104.55 220.53 154.33 359.91 190.75 45.217 5.0355 100.42 21.281 117.16-5.7187 310.5-2.1531 683.47-247.23 1025.7-372.84l4.9062-9.8125c-15.741-27.935-36.61-61.421-63.5-103.06-172.04-203.95-352.87-284.65-539.56-283.5z" fill="url(#n)"/>
  <path d="m-46.719 1436c-75.907 0.4679-152.8 14.467-230.44 39.219-115.65 38.525-222.84 91.095-327.12 148.56-69.382 44.595-133.94 91.602-195.72 140-46.423 35.494-90.218 78.835-132.84 125.72-16.979 14.626-25.334 34.175-28.125 54.875 21.452 91.074 147.86 170.96 408.12 236.56 29.851-0.086 58.055 14.436 91.406-17.156 154.3-103.9 307.06-186.24 432.88-340 244.41-280.23 385.01-257.79 567.5-30.969-12.865-21.333-28.11-45.464-46.094-73.312-172.04-203.95-352.87-284.65-539.56-283.5z" fill="#800000"/>
  <path d="m-452.86 2175.2c164.72-95.127 316.65-205.89 447.14-342.86 117.16-131.26 224.11-290.62 444.29-138.57 54.963 52.726 110.18 104.99 142.86 198.57 20.731 147.04-103.07 212.39-255.71 261.43-180.58 34.741-362.7 65.633-528.57 137.14-57.619 23.185-115.24 36.302-172.86 44.286-32.475-27.432-65.228-54.306-82.857-111.43-29.43-27.381-17.806-40.101 5.7143-48.572z" fill="#808080"/>
  <path d="m-905.16 2088.9 71.184 82.056c131.29 123.26 276.35 183.52 438.36 166.4-32.263-34.558-48.921-62.582-70.806-99.931-149.86 22.321-299.09-55.825-438.74-148.52z" fill="url(#m)"/>
  <path d="m-452.86 2175.2c164.72-95.127 316.65-205.89 447.14-342.86 117.16-131.26 224.11-290.62 444.29-138.57 54.963 52.726 110.18 104.99 142.86 198.57 20.731 147.04-103.07 212.39-255.71 261.43-180.58 34.741-362.7 65.633-528.57 137.14-57.619 23.185-115.24 36.302-172.86 44.286-32.475-27.432-65.228-54.306-82.857-111.43-29.43-27.381-17.806-40.101 5.7143-48.572z" fill="url(#l)"/>
  <path d="m215.5 1640.7c-86.951 27.571-152.31 114.49-221.22 191.69-130.49 136.97-282.4 247.72-447.12 342.84-10.115 3.6428-18.042 8.0825-21.438 14.125 96.211 3.8525 174.26-41.551 247.84-99.125 117.19-91.479 246.81-195.37 375-297.84 20.952-18.318 41.923-47.392 62.875-48.594 50.174-58.772 25.821-80.288 4.0625-103.09z" fill="url(#t)"/>
  <path d="m-46.719 1436c-75.907 0.4679-152.8 14.467-230.44 39.219-115.65 38.525-222.84 91.095-327.12 148.56-69.382 44.595-133.94 91.602-195.72 140-46.423 35.494-90.218 78.835-132.84 125.72-16.979 14.626-25.334 34.175-28.125 54.875 21.452 91.074 147.86 170.96 408.12 236.56 29.851-0.086 58.055 14.436 91.406-17.156 154.3-103.9 307.06-186.24 432.88-340 244.41-280.23 385.01-257.79 567.5-30.969-12.865-21.333-28.11-45.464-46.094-73.312-172.04-203.95-352.87-284.65-539.56-283.5z" fill="#800000"/>
  <path d="m-46.719 1436c-75.907 0.4679-152.8 14.467-230.44 39.219-115.65 38.525-222.84 91.095-327.12 148.56-69.382 44.595-133.94 91.602-195.72 140-46.423 35.494-90.218 78.835-132.84 125.72-16.979 14.626-25.334 34.175-28.125 54.875 21.452 91.074 147.86 170.96 408.12 236.56 29.851-0.086 58.055 14.437 91.406-17.156 154.3-103.9 307.06-186.24 432.88-340 68.343-78.356 128.58-133.04 183.88-166.22-5.6428-118.36-77.34-183.3-182.22-221.38-6.593-0.1662-13.205-0.2282-19.812-0.1875z" fill="url(#k)" opacity=".6061"/>
  <path d="m-865.71 2095.9 0.71429-40c67.949-66.598 135.9-133.2 208.57-191.43-15.675-15.511-20.46-32.383 9.2857-53.571l154.29-120c22.84-19.552 46.932-28.456 73.571-15.714l93.571-65c-14.668-12.69-16.008-26.121 3.5714-40.714l137.14-63.571 11.429 7.1429c24.052-13.593 47.139-22.359 69.286-26.429l4.2857 3.5714c-19.587 3.914-44.058 15.97-69.286 29.286 4.1669 4.5632 11.042 4.6124 10 17.857l-131.43 86.429-22.857-7.8572-98.571 65c11.695 14.755 24.913 29.129-7.8571 55l-161.43 131.43c-33.055 27.13-50.188 17.104-66.429 5-70.492 57.063-139.24 122.87-207.86 189.29l-4.2857 28.571z"/>
  <path d="m-121.56 1478.7c-16.661 0.136-38.648 3.1143-64.156 7.9687-469.28 189.79-590.09 368.45-715.09 547.25 23.885 20.504 54.772 40.255 93.094 59.219 105.04-46.935 178.54-133.28 259.16-210.75 129.23-129.79 276.29-228.42 420-332.88 57.359-52.953 49.579-71.16 7-70.812z" fill="url(#j)" opacity=".2917"/>
  <path d="m-592.24 1857.6c-22.217 4.0706-42.305 0.6869-60.714-8.5715 10.065-58.257 60.781-156.52 197.86-164.29 25.748 1.2347 38.72 11.594 51.429 22.143l-47.857 49.286z" fill="#999"/>
  <path d="m-445.59 1685.3c-4.6708 0.2608-9.2315 0.6341-13.706 1.0937-120.84 31.288-160.45 94.838-181.83 165.62 9.0371 3.8666 18.458 6.3989 28.333 7.375 66.756-141.54 159.32-157.75 206.36-143.38l-24.526-28.844c-4.4023-0.9538-9.2308-1.6201-14.627-1.875z"/>
  <path d="m-592.24 1857.6c-22.217 4.0706-42.305 0.6869-60.714-8.5715 10.065-58.257 60.781-156.52 197.86-164.29 25.748 1.2347 38.72 11.594 51.429 22.143l-47.857 49.286z" fill="url(#i)"/>
  <path d="m-455.1 1684.8c-4.6004 0.2608-9.0924 0.6341-13.5 1.0937-119.02 31.288-158.03 94.838-179.09 165.62 8.901 3.8666 18.179 6.3989 27.906 7.375 65.75-141.54 156.92-157.75 203.25-143.38l-24.156-28.844c-4.336-0.9538-9.0918-1.6201-14.406-1.875z" fill="#1a1a1a"/>
  <path d="m-330.71 1609.5 2.1429-37.857 124.29-75.357 33.214 23.571 1.0714 35-120 80z"/>
  <path d="m-204.28 1496.3-124 75.219 35.438 23.719 121.78-75.094v-0.25l-33.219-23.594z" fill="url(#h)"/>
  <path d="m-420.1 1719.1c-104.4 3.6125-143.99 67.974-176.22 139.25 1.3521-0.1945 2.6944-0.4369 4.0625-0.6876l140.72-101.41 32.75-33.719-1.3125-3.4374z" fill="#808080"/>
  <path d="m-428.26 1730.4c-51.974-0.4146-122.86 46.952-147.53 115.34l124.25-89.531 25.031-25.781c-0.58376-0.017-1.1613-0.027-1.75-0.031z" fill="url(#s)"/>
  <path d="m-455.1 1684.8c-4.6004 0.2608-9.0924 0.6341-13.5 1.0937-119.02 31.288-158.03 94.838-179.09 165.62 8.901 3.8666 18.179 6.3989 27.906 7.375 65.75-141.54 156.92-157.75 203.25-143.38l-24.156-28.844c-4.336-0.9538-9.0918-1.6201-14.406-1.875z" fill="url(#q)"/>
  <path d="m-455.1 1684.8c-4.6004 0.2608-9.0924 0.6341-13.5 1.0937-119.02 31.288-158.03 94.838-179.09 165.62 8.901 3.8666 18.179 6.3989 27.906 7.375 65.75-141.54 156.92-157.75 203.25-143.38l-24.156-28.844c-4.336-0.9538-9.0918-1.6201-14.406-1.875z" fill="url(#g)"/>
  <path d="m-328.56 1571.9-2.1562 37.594 38.969 24.281-1.0938-37.844-35.719-24.031z" fill="url(#f)"/>
 </g>
</svg>
